<svg width="47" height="54" viewBox="0 0 47 54" fill="none" xmlns="http://www.w3.org/2000/svg">
<circle cx="32" cy="27" r="15" fill="#FE721C"/>
<path d="M10.872 14.98C13.536 14.98 15.864 15.496 17.856 16.528C19.872 17.536 21.42 19 22.5 20.92C23.604 22.816 24.156 25.036 24.156 27.58C24.156 30.124 23.604 32.332 22.5 34.204C21.42 36.076 19.872 37.516 17.856 38.524C15.864 39.508 13.536 40 10.872 40H2.7V14.98H10.872ZM10.872 36.652C13.8 36.652 16.044 35.86 17.604 34.276C19.164 32.692 19.944 30.46 19.944 27.58C19.944 24.676 19.164 22.408 17.604 20.776C16.044 19.144 13.8 18.328 10.872 18.328H6.804V36.652H10.872ZM31.8594 36.652H40.8594V40H27.1074V36.652L36.1434 23.512H27.1074V20.164H40.8594V23.512L31.8594 36.652Z" fill="white"/>
</svg>
